<svg xmlns="http://www.w3.org/2000/svg" viewBox="0 0 256 256">
  <rect width="256" height="256" fill="#000000"/>
  <circle cx="128" cy="80" r="24" fill="#FFD700"/>
  <line x1="128" y1="40" x2="128" y2="50" stroke="#FFD700" stroke-width="4" stroke-linecap="round"/>
  <line x1="128" y1="110" x2="128" y2="120" stroke="#FFD700" stroke-width="4" stroke-linecap="round"/>
  <line x1="88" y1="80" x2="98" y2="80" stroke="#FFD700" stroke-width="4" stroke-linecap="round"/>
  <line x1="158" y1="80" x2="168" y2="80" stroke="#FFD700" stroke-width="4" stroke-linecap="round"/>
  <line x1="98" y1="50" x2="105" y2="57" stroke="#FFD700" stroke-width="4" stroke-linecap="round"/>
  <line x1="151" y1="103" x2="158" y2="110" stroke="#FFD700" stroke-width="4" stroke-linecap="round"/>
  <line x1="158" y1="50" x2="151" y2="57" stroke="#FFD700" stroke-width="4" stroke-linecap="round"/>
  <line x1="105" y1="103" x2="98" y2="110" stroke="#FFD700" stroke-width="4" stroke-linecap="round"/>
  <rect x="64" y="140" width="128" height="80" fill="#FFD700" stroke="#000000" stroke-width="3"/>
  <line x1="64" y1="160" x2="192" y2="160" stroke="#000000" stroke-width="2"/>
  <line x1="64" y1="180" x2="192" y2="180" stroke="#000000" stroke-width="2"/>
  <line x1="64" y1="200" x2="192" y2="200" stroke="#000000" stroke-width="2"/>
  <line x1="96" y1="140" x2="96" y2="220" stroke="#000000" stroke-width="2"/>
  <line x1="128" y1="140" x2="128" y2="220" stroke="#000000" stroke-width="2"/>
  <line x1="160" y1="140" x2="160" y2="220" stroke="#000000" stroke-width="2"/>
</svg>